<svg xmlns="http://www.w3.org/2000/svg" viewBox="0 0 100 100"><path stroke="#717171" fill="#717171" d="M99.337 89.242L68.052 57.956c4.063-6.057 6.246-13.18 6.246-20.636 0-9.923-3.864-19.252-10.88-26.27C56.4 4.036 47.07.17 37.148.17 27.227.17 17.9 4.036 10.88 11.05 3.864 18.07 0 27.398 0 37.32s3.864 19.25 10.88 26.268 16.346 10.88 26.27 10.88c7.54 0 14.737-2.233 20.838-6.384l31.255 31.253c1.055 1.056 2.995.826 4.332-.51l5.252-5.253c1.337-1.337 1.566-3.277.51-4.332zM37.15 64.405c-14.937 0-27.087-12.15-27.087-27.085s12.15-27.086 27.086-27.086c14.933 0 27.083 12.15 27.083 27.086S52.083 64.405 37.15 64.405z"/></svg>
